<svg xmlns="http://www.w3.org/2000/svg" viewBox="0 0 24 24"><path fill="#1769FF" d="M6.938 4.503c.702 0 1.338.065 1.911.192.574.128 1.064.366 1.472.713.407.347.722.807.944 1.379.222.572.333 1.278.333 2.118 0 .914-.139 1.675-.417 2.282a4.3 4.3 0 0 1-1.128 1.475 4.77 4.77 0 0 1-1.661.827 6.4 6.4 0 0 1-2.054.305H0V4.503zm-.139 8.924c.463 0 .898-.048 1.305-.144a3.1 3.1 0 0 0 1.046-.472c.305-.217.548-.502.731-.856.185-.354.277-.789.277-1.305 0-.498-.083-.916-.25-1.253a2.05 2.05 0 0 0-.648-.775 2.55 2.55 0 0 0-.898-.416 4.8 4.8 0 0 0-1.046-.11H2.222v5.331zm11.528 2.089c-.648.555-1.546.833-2.694.833-1.028 0-1.907-.222-2.639-.666a4.4 4.4 0 0 1-1.629-1.824 5.4 5.4 0 0 1-.555-2.472c0-.905.185-1.713.555-2.425a4.2 4.2 0 0 1 1.546-1.657c.648-.388 1.379-.583 2.194-.583.777 0 1.472.166 2.083.499.611.333 1.102.813 1.472 1.44.37.628.555 1.379.555 2.255v.777H13.61c.028.666.231 1.185.61 1.557.38.37.898.555 1.555.555.463 0 .861-.083 1.194-.25a2.7 2.7 0 0 0 .888-.666l1.305 1.016a4.6 4.6 0 0 1-1.694 1.388M16.5 10.5c-.028-.555-.212-.98-.555-1.277a1.55 1.55 0 0 0-1.111-.444c-.481 0-.87.148-1.166.444-.296.296-.481.722-.555 1.277zM24 4.503h-5.833v1.833H24z"/></svg>
