<svg xmlns="http://www.w3.org/2000/svg" viewBox="0 0 24 24"><path fill="#ffffff" d="M20.317 4.37a19.79 19.79 0 0 0-4.885-1.515.074.074 0 0 0-.079.037c-.21.375-.445.865-.608 1.25a18.27 18.27 0 0 0-5.487 0 12.64 12.64 0 0 0-.617-1.25.077.077 0 0 0-.079-.037A19.736 19.736 0 0 0 3.677 4.37a.07.07 0 0 0-.032.028C.533 9.046-.319 13.58.1 18.058a.082.082 0 0 0 .031.056c2.053 1.508 4.041 2.423 5.993 3.029a.077.077 0 0 0 .084-.028c.462-.63.873-1.295 1.226-1.994a.076.076 0 0 0-.042-.106 13.1 13.1 0 0 1-1.872-.892.077.077 0 0 1-.008-.128c.126-.094.252-.192.372-.291a.074.074 0 0 1 .078-.01c3.928 1.793 8.18 1.793 12.061 0a.074.074 0 0 1 .078.01c.12.099.246.198.373.292a.077.077 0 0 1-.007.127 12.3 12.3 0 0 1-1.873.892.076.076 0 0 0-.041.107c.36.698.772 1.363 1.225 1.993a.076.076 0 0 0 .084.028c1.961-.606 3.95-1.521 6.002-3.029a.077.077 0 0 0 .031-.055c.5-5.177-.838-9.674-3.549-13.66a.061.061 0 0 0-.031-.029M8.02 15.33c-1.183 0-2.157-1.085-2.157-2.419 0-1.333.956-2.419 2.157-2.419 1.21 0 2.176 1.096 2.157 2.42 0 1.333-.956 2.418-2.157 2.418m7.975 0c-1.183 0-2.157-1.085-2.157-2.419 0-1.333.955-2.419 2.157-2.419 1.21 0 2.176 1.096 2.157 2.42 0 1.333-.946 2.418-2.157 2.418"/></svg>
