<svg xmlns="http://www.w3.org/2000/svg" viewBox="0 0 24 24"><path fill="#EA4C89" d="M12 0C5.375 0 0 5.375 0 12s5.375 12 12 12 12-5.375 12-12S18.625 0 12 0m7.568 5.302c1.266 1.633 2.02 3.68 2.074 5.897a27.4 27.4 0 0 0-5.522-.893 33.5 33.5 0 0 0-2.2-3.496 9.8 9.8 0 0 1 5.648-1.508M12 2.163c1.902 0 3.656.633 5.066 1.7a31.2 31.2 0 0 1 2.01 3.2 27.4 27.4 0 0 0-6.066-.684 27.5 27.5 0 0 0-3.885-2.2A9.7 9.7 0 0 1 12 2.163M7.62 5.08a25.7 25.7 0 0 1 3.753 2.08 26.3 26.3 0 0 0-4.953 1.258 9.7 9.7 0 0 1 1.2-3.338m-3.2 4.9a24.6 24.6 0 0 1 5.3-1.32 37.4 37.4 0 0 1 3.2 5.7 36.8 36.8 0 0 1-8.5 0 37.2 37.2 0 0 1-.001-4.38M2.163 12c0-.894.108-1.763.31-2.594a22.4 22.4 0 0 0 9.2 0 37 37 0 0 0-.3 5.294 37 37 0 0 0-9.21 0A11.8 11.8 0 0 1 2.163 12m1.7 4.933a24.6 24.6 0 0 1 8.8 0 27.4 27.4 0 0 1-2.2 3.496 9.8 9.8 0 0 1-5.522-.893 9.7 9.7 0 0 1-1.078-2.603m6.157 5.302a33.5 33.5 0 0 1 2.2-3.496 27.4 27.4 0 0 0 5.522-.893c-.054 2.217-.808 4.264-2.074 5.897a9.8 9.8 0 0 1-5.648-1.508M16.8 18.9a31.2 31.2 0 0 0-2.01-3.2 26.3 26.3 0 0 0 4.953-1.258 9.7 9.7 0 0 1-1.2 3.338 25.7 25.7 0 0 1-1.743 1.12"/></svg>
