<svg xmlns="http://www.w3.org/2000/svg" viewBox="0 0 24 24">
  <defs>
    <radialGradient id="ig" cx="30%" cy="107%" r="150%">
      <stop offset="0%" stop-color="#fdf497"/>
      <stop offset="45%" stop-color="#fd5949"/>
      <stop offset="60%" stop-color="#d6249f"/>
      <stop offset="90%" stop-color="#285AEB"/>
    </radialGradient>
  </defs>
  <path fill="url(#ig)" d="M12 2.163c3.204 0 3.584.012 4.85.07 1.366.062 2.633.35 3.608 1.325.975.975 1.263 2.242 1.325 3.608.058 1.266.07 1.646.07 4.85s-.012 3.584-.07 4.85c-.062 1.366-.35 2.633-1.325 3.608-.975.975-2.242 1.263-3.608 1.325-1.266.058-1.646.07-4.85.07s-3.584-.012-4.85-.07c-1.366-.062-2.633-.35-3.608-1.325-.975-.975-1.263-2.242-1.325-3.608C2.175 15.647 2.163 15.267 2.163 12s.012-3.584.07-4.85c.062-1.366.35-2.633 1.325-3.608.975-.975 2.242-1.263 3.608-1.325C8.416 2.175 8.796 2.163 12 2.163m0-2.163C8.741 0 8.332.013 7.052.072 5.775.132 4.905.333 4.14.63c-.789.306-1.459.717-2.126 1.384S.935 3.35.63 4.14C.333 4.905.132 5.775.072 7.052.013 8.332 0 8.741 0 12s.013 3.668.072 4.948c.06 1.277.261 2.148.558 2.913.306.788.717 1.459 1.384 2.126.667.666 1.336 1.079 2.126 1.384.766.296 1.636.497 2.913.558C8.332 23.987 8.741 24 12 24s3.668-.013 4.948-.072c1.277-.06 2.148-.262 2.913-.558.788-.306 1.459-.718 2.126-1.384.666-.667 1.079-1.335 1.384-2.126.296-.765.497-1.636.558-2.913.06-1.28.072-1.689.072-4.948s-.012-3.667-.072-4.947c-.06-1.277-.262-2.149-.558-2.913-.306-.789-.718-1.459-1.384-2.126C21.319 1.347 20.651.935 19.86.63c-.765-.297-1.636-.498-2.913-.558C15.668.013 15.259 0 12 0m0 5.838a6.162 6.162 0 1 0 0 12.324 6.162 6.162 0 0 0 0-12.324M12 16a4 4 0 1 1 0-8 4 4 0 0 1 0 8m6.406-11.845a1.44 1.44 0 1 0 0 2.881 1.44 1.44 0 0 0 0-2.881"/>
</svg>
