<svg xmlns="http://www.w3.org/2000/svg" viewBox="0 0 24 24"><path fill="#ffffff" d="M1.175 12.225c-.051 0-.094.046-.101.1l-.233 2.154.233 2.105c.007.058.05.098.101.098.05 0 .09-.04.099-.098l.255-2.105-.27-2.154a.009.009 0 0 0-.09-.1m3.776-1.005c-.061 0-.12.045-.12.104l-.21 2.563.225 2.458c0 .06.045.104.104.104.061 0 .105-.045.12-.104l.254-2.474-.254-2.551a.12.12 0 0 0-.12-.1m.945-.089c-.075 0-.135.06-.143.135l-.193 2.64.193 2.564c.008.075.068.135.143.135.075 0 .135-.06.15-.135l.22-2.564-.22-2.64a.14.14 0 0 0-.15-.135m1.005.045c-.09 0-.165.075-.165.165l-.18 2.595.18 2.52c0 .09.075.165.165.165.09 0 .165-.075.18-.165l.204-2.52-.204-2.595a.17.17 0 0 0-.18-.165m1.185-.15c-.105 0-.18.09-.18.195l-.158 2.745.158 2.505c0 .105.075.195.18.195.105 0 .18-.09.195-.195l.18-2.505-.18-2.745a.19.19 0 0 0-.195-.195m1.23.015c-.12 0-.21.09-.225.21l-.142 2.73.142 2.475c.015.12.105.21.225.21.12 0 .21-.09.225-.21l.158-2.475-.158-2.73a.22.22 0 0 0-.225-.21m1.26-.06c-.135 0-.24.105-.24.24l-.12 2.79.12 2.445c0 .135.105.24.24.24.135 0 .24-.105.24-.24l.135-2.445-.135-2.79a.24.24 0 0 0-.24-.24m1.275.045c-.15 0-.27.12-.27.27l-.105 2.745.105 2.415c0 .15.12.27.27.27s.27-.12.27-.27l.12-2.415-.12-2.745a.27.27 0 0 0-.27-.27m1.305-.075c-.165 0-.3.135-.3.3l-.09 2.82.09 2.385c0 .165.135.3.3.3.165 0 .3-.135.3-.3l.105-2.385-.105-2.82a.3.3 0 0 0-.3-.3m1.32.03c-.18 0-.315.15-.315.33l-.075 2.79.075 2.355c0 .18.135.33.315.33.18 0 .315-.15.33-.33l.09-2.355-.09-2.79a.33.33 0 0 0-.33-.33m1.35-.045c-.195 0-.345.165-.345.36l-.06 2.835.06 2.325c0 .195.15.36.345.36.195 0 .345-.165.345-.36l.075-2.325-.075-2.835a.36.36 0 0 0-.345-.36m1.365.015c-.21 0-.375.18-.375.39l-.045 2.82.045 2.31c0 .21.165.39.375.39.21 0 .375-.18.39-.39l.06-2.31-.06-2.82a.39.39 0 0 0-.39-.39m1.38-.03c-.225 0-.405.195-.405.42l-.03 2.85.03 2.28c0 .225.18.42.405.42.225 0 .405-.195.42-.42l.045-2.28-.045-2.85a.42.42 0 0 0-.42-.42m1.395.045c-.24 0-.435.21-.435.45l-.015 2.805.015 2.265c0 .24.195.45.435.45.24 0 .435-.21.45-.45l.03-2.265-.03-2.805a.45.45 0 0 0-.45-.45m1.41-.015c-.255 0-.465.225-.465.48l-.015 2.82.015 2.235c0 .255.21.48.465.48.255 0 .465-.225.48-.48l.015-2.235-.015-2.82a.48.48 0 0 0-.48-.48m1.425.03c-.27 0-.495.24-.495.51v5.295c0 .27.225.51.495.51.27 0 .495-.24.51-.51V12.735a.51.51 0 0 0-.51-.51m1.44-.045c-.285 0-.525.255-.525.54v5.37c0 .285.24.54.525.54.285 0 .525-.255.54-.54V12.78a.54.54 0 0 0-.54-.54m1.455.015c-.3 0-.555.27-.555.57v5.31c0 .3.255.57.555.57.3 0 .555-.27.57-.57V12.855a.57.57 0 0 0-.57-.57m1.47-.03c-.315 0-.585.285-.585.6v5.25c0 .315.27.6.585.6.315 0 .585-.285.6-.6V12.885a.6.6 0 0 0-.6-.6m1.485.045c-.33 0-.615.3-.615.63v5.19c0 .33.285.63.615.63.33 0 .615-.3.63-.63V12.915a.63.63 0 0 0-.63-.63m1.5-.015c-.345 0-.645.315-.645.66v5.13c0 .345.3.66.645.66.345 0 .645-.315.66-.66V12.945a.66.66 0 0 0-.66-.66m1.515.03c-.36 0-.675.33-.675.69v5.07c0 .36.315.69.675.69.36 0 .675-.33.69-.69V12.975a.69.69 0 0 0-.69-.69m1.53-.045c-.375 0-.705.345-.705.72v5.01c0 .375.33.72.705.72.375 0 .705-.345.72-.72V12.99a.72.72 0 0 0-.72-.72m1.545.015c-.39 0-.735.36-.735.75v4.95c0 .39.345.75.735.75.39 0 .735-.36.75-.75V13.005a.75.75 0 0 0-.75-.75m1.56-.03c-.405 0-.765.375-.765.78v4.89c0 .405.36.78.765.78.405 0 .765-.375.78-.78V13.035a.78.78 0 0 0-.78-.78m1.575.045c-.42 0-.795.39-.795.81v4.83c0 .42.375.81.795.81.42 0 .795-.39.81-.81V13.05a.81.81 0 0 0-.81-.81m1.59-.015c-.435 0-.825.405-.825.84v4.77c0 .435.39.84.825.84.435 0 .825-.405.84-.84V13.065a.84.84 0 0 0-.84-.84m1.605.03c-.45 0-.855.42-.855.87v4.71c0 .45.405.87.855.87.45 0 .855-.42.87-.87V13.08a.87.87 0 0 0-.87-.87m1.62-.045c-.465 0-.885.435-.885.9v4.65c0 .465.42.9.885.9.465 0 .885-.435.9-.9V13.095a.9.9 0 0 0-.9-.9m1.635.015c-.48 0-.915.45-.915.93v4.59c0 .48.435.93.915.93.48 0 .915-.45.93-.93V13.11a.93.93 0 0 0-.93-.93m1.65-.03c-.495 0-.945.465-.945.96v4.53c0 .495.45.96.945.96.495 0 .945-.465.96-.96V13.125a.96.96 0 0 0-.96-.96m1.665.045c-.51 0-.975.48-.975.99v4.47c0 .51.465.99.975.99.51 0 .975-.48.99-.99V13.14a.99.99 0 0 0-.99-.99"/></svg>
